<svg xmlns="http://www.w3.org/2000/svg" version="1.1" xmlns:xlink="http://www.w3.org/1999/xlink" viewBox="0 0 9.086416341350375 4.856219403291625"><g transform="matrix(0.8069348783470367,0,0,0.8069348783470367,1.3459183331011313,2.993905442835943)"><rect width="10.248302653403876" height="10.248302653403876" x="-1.1618863120535" y="-5.825317872321" fill="#f9f7e9"></rect><g transform="matrix(1,0,0,1,0,0)" clip-path="url(#SvgjsClipPath197020)"><g clip-path="url(#SvgjsClipPath197015b3663a52-7c06-480e-80b9-7c9c4ab95df7)"><path d=" M 5.550882615906243 -1.3368239213319364 L 5.834894731788689 -1.6700406840424233 L 5.837879572497007 -2.163082099225612 L 5.231504660116142 -2.203874922239301 Z" fill="#c08c46" transform="matrix(1,0,0,1,0,0)" fill-rule="nonzero"></path></g><g clip-path="url(#SvgjsClipPath197015b3663a52-7c06-480e-80b9-7c9c4ab95df7)"><path d=" M 2.4350403132598926 -1.3476100772205686 L 2.1649574540162675 -1.6745858093591166 L 2.147138859484789 -2.1609339453781966 L 2.756589062292407 -2.213756580943594 Z" fill="#c08c46" transform="matrix(1,0,0,1,0,0)" fill-rule="nonzero"></path></g><g clip-path="url(#aad1f2bff-eab0-478e-9ee4-57cf11b112c9b3663a52-7c06-480e-80b9-7c9c4ab95df7)"><path d=" M 5.5634651890987605 -1.6563122222102757 C 5.5756759010873385 -1.7006325842428867 5.522310567211337 -1.742782153033084 5.454835077259647 -1.7689221216604811 C 5.482693590537288 -1.7689221216604811 5.5352448769473845 -1.8254531956816686 5.534159480326178 -1.8938331828176969 C 5.532802734549669 -1.9878104402705188 5.529365645249181 -2.1600267041686645 5.539405563995343 -2.2584359978247472 C 5.550530879362714 -2.3687846543141053 5.500873983942503 -2.401798801542479 5.405630430431605 -2.4182606502974484 C 4.9966168036735095 -2.4849220927832327 4.5024899918691155 -2.483746246443592 4.095285359479698 -2.4167230050840725 C 4.0436385702539415 -2.4076780332406824 4.013880612889189 -2.3940201257571636 3.9997704568134997 -2.365618914168919 C 3.988373792290828 -2.3912161844857125 3.96729900789573 -2.4093061281724926 3.924516291076495 -2.4167230050840725 C 3.5120655750179117 -2.483836696162026 3.011607282923143 -2.4851029922201007 2.5973475724958814 -2.4184415497343164 C 2.500928172645344 -2.4019797009793464 2.4506381291960952 -2.3689655537509733 2.4618538942818997 -2.258616897261615 C 2.4720747124649303 -2.1602076036055324 2.468637623164442 -1.9879913397073867 2.4671904276694994 -1.8940140822545648 C 2.466285930485161 -1.8354931144278317 2.5049984099748697 -1.7858362190076205 2.5339423198737174 -1.7725401103978373 C 2.4997523263057033 -1.751827124876474 2.4528993721569434 -1.6876078247884052 2.4555224139915266 -1.6583925657342555 C 2.460587598223825 -1.6060221787610276 2.479582039094944 -1.4340772640181838 2.5153096778763344 -1.4338963645813159 C 3.0650630665175784 -1.431182873028299 5.057399014461092 -1.437514353318672 5.553153921197296 -1.440046945434821 C 5.582821428843616 -1.440227844871689 5.552249424012958 -1.6159716477887565 5.5634651890987605 -1.6563122222102757" fill="#c08c46" transform="matrix(1,0,0,1,0,0)" fill-rule="nonzero"></path></g><g clip-path="url(#SvgjsClipPath197015b3663a52-7c06-480e-80b9-7c9c4ab95df7)"><path d=" M 2.392302714455878 -0.9880715475994926 L 2.628376479568357 -0.9880715475994926 L 2.6846362044342422 -1.2119346007233949 L 2.336042989589992 -1.2119346007233949 Z" fill="#c08c46" transform="matrix(1,0,0,1,0,0)" fill-rule="nonzero"></path></g><g clip-path="url(#SvgjsClipPath197015b3663a52-7c06-480e-80b9-7c9c4ab95df7)"><path d=" M 5.320913631865592 -1.2120029978408458 L 5.377173356731477 -0.9881399447169434 L 5.613247121843957 -0.9881399447169434 L 5.669597296428275 -1.2120029978408458 Z" fill="#c08c46" transform="matrix(1,0,0,1,0,0)" fill-rule="nonzero"></path></g><g clip-path="url(#bad1f2bff-eab0-478e-9ee4-57cf11b112c9b3663a52-7c06-480e-80b9-7c9c4ab95df7)"><path d=" M 5.856974525416765 -2.162830645440115 L 5.831829503692141 -2.1640064917797557 C 5.792212527018094 -2.1659059358668675 5.746264070053673 -2.1335249366675315 5.727721877774723 -2.0902899712561274 C 5.642608692728423 -1.8878635014010594 5.553877518944768 -1.6810954450611642 5.499969486758163 -1.4709807491392146 L 2.5056315580039064 -1.4709807491392146 C 2.451633076098868 -1.6810954450611642 2.362992352033647 -1.8878635014010594 2.2778791669873466 -2.0902899712561274 C 2.259336974708397 -2.1335249366675315 2.213388517743976 -2.1651823381193966 2.1737715410699274 -2.1633733437507185 C 2.1653597172555745 -2.162921095158549 2.156947893441222 -2.162921095158549 2.148626519345304 -2.1624688465663797 C 2.109009542671255 -2.1605694024792674 2.0805178813645764 -2.12583671060065 2.0857639650337427 -2.081606798286473 C 2.1280039835423743 -1.7688316719420472 2.184987306155731 -1.4552424981317162 2.2118508725305994 -1.1415628746029511 C 2.2117878434439606 -1.1240086608392503 2.2190155844492883 -1.1072161664522868 2.231808206425221 -1.0951952173837496 C 2.2446008284011536 -1.0831742683152124 2.2618099870415147 -1.0770039387723793 2.2793263624822884 -1.0781576219807874 C 2.2984112530718415 -1.0790621191651262 2.3175865933798288 -1.0817756107181433 2.336761933687815 -1.0817756107181433 L 5.668748661355821 -1.0817756107181433 C 5.6879240016638075 -1.0817756107181433 5.707099341971794 -1.0790621191651262 5.726274682279781 -1.0781576219807874 C 5.74383404324249 -1.0771063554541083 5.761044356337727 -1.0833762156224882 5.7738126447630655 -1.0954760970027415 C 5.786580933188404 -1.107575978382995 5.793766231090531 -1.1244246435356071 5.793659722513036 -1.1420151231951203 C 5.820523288887905 -1.4556947467238857 5.877506611501261 -1.7691934708157826 5.919746630009893 -2.0819685971602087 C 5.925083163397494 -2.126198509474386 5.896591502090814 -2.1609312013530033 5.856974525416765 -2.162830645440115" fill="#d56a34" transform="matrix(1,0,0,1,0,0)" fill-rule="nonzero"></path></g><g clip-path="url(#bad1f2bff-eab0-478e-9ee4-57cf11b112c9b3663a52-7c06-480e-80b9-7c9c4ab95df7)"><path d=" M 3.9882833425723945 -2.4107533236674348 C 3.982946809184794 -2.464661355854039 3.9535506506937765 -2.485283891656968 3.884808864684013 -2.497404153927111 C 3.4834834639927985 -2.5644273952866308 2.9966830793815493 -2.5656032416262713 2.5935486843216573 -2.4989417991404874 C 2.4997523263057033 -2.4824799503855175 2.4507285789145294 -2.449465803157144 2.4616729948450313 -2.3391171466677863 C 2.466182137451298 -2.285116013402887 2.468415208797353 -2.230948944941151 2.4683662740091403 -2.176759902078934 C 2.468999422038178 -2.1025911329631377 2.4675522265432352 -2.026522919760228 2.466828628795764 -1.9745143316607354 C 2.4657432321745576 -1.9060438948062732 2.5175709208371817 -1.849512820785086 2.5450676352410877 -1.849512820785086 L 3.9151999700778037 -1.8488796727560486 C 3.937721949967844 -1.8488796727560486 3.967660806769465 -1.871039853772354 3.9770675774865905 -1.9178023582026804 C 3.9770675774865905 -1.9178023582026804 3.9726355412833296 -2.2385370597692895 3.9852985018640754 -2.338303099201881 C 3.98656479792215 -2.3487048168217797 3.9875597448249236 -2.3584733864126406 3.9882833425723945 -2.3675183582560306 L 3.9882833425723945 -2.3670661096638614 L 3.9882833425723945 -2.4107533236674348" fill="#d56a34" transform="matrix(1,0,0,1,0,0)" fill-rule="nonzero"></path></g><g clip-path="url(#bad1f2bff-eab0-478e-9ee4-57cf11b112c9b3663a52-7c06-480e-80b9-7c9c4ab95df7)"><path d=" M 5.397309056335686 -2.4988513494220532 C 4.995531407052303 -2.5656032416262713 4.510178217935996 -2.5644273952866308 4.110209563021291 -2.497313704208677 C 4.041739126166828 -2.4851934419385344 4.012342967675812 -2.4645709061356054 4.0070968840066445 -2.4107533236674348 L 4.0070968840066445 -2.3669756599454272 C 4.007730032035682 -2.358021137820471 4.008724978938456 -2.3485239173849117 4.00999127499653 -2.3383030992018807 C 4.022654235577276 -2.2384466100508553 4.016322755286903 -1.9266664306092025 4.018222199374014 -1.9178023582026802 C 4.018222199374014 -1.9178023582026802 4.034412698973682 -1.8488796727560484 4.0798184576275 -1.8487892230376146 L 5.4456996556978225 -1.849512820785086 C 5.473105920383295 -1.849512820785086 5.5246622598906185 -1.9059534450878393 5.523667312987845 -1.9744238819423017 C 5.52285326552194 -2.026432470041794 5.5214965197454315 -2.102500683244704 5.522129667774468 -2.1767599020789357 L 5.522129667774468 -2.176669452360502 C 5.522672366085072 -2.2365471659637435 5.524390910735317 -2.2951585835089108 5.528822946938577 -2.339026696949352 C 5.539676913150645 -2.44937535343871 5.4908340651963385 -2.4824799503855175 5.397309056335686 -2.4988513494220532" fill="#d56a34" transform="matrix(1,0,0,1,0,0)" fill-rule="nonzero"></path></g><g clip-path="url(#bad1f2bff-eab0-478e-9ee4-57cf11b112c9b3663a52-7c06-480e-80b9-7c9c4ab95df7)"><path d=" M 4.067155497046755 -1.5147584128612224 L 5.442262566397336 -1.521270792588463 C 5.455522831211406 -1.5214792833627822 5.468137490066425 -1.5270316521792249 5.477247424528564 -1.5366694520027209 C 5.486357358990702 -1.5463072518262164 5.491191131695803 -1.5592143451836598 5.490653165759472 -1.5724653332220504 C 5.4896582188566985 -1.6108160138380239 5.494361604215262 -1.6501616413567706 5.504672872116727 -1.6904117660598559 C 5.516069536639398 -1.7354557258399381 5.460171610647247 -1.7795951884356813 5.366556152068162 -1.7858362190076202 C 4.964688053066343 -1.8112525898875464 4.509002371596356 -1.808810447489831 4.108219669215746 -1.7795951884356813 C 4.0149660095103945 -1.7724496606794031 4.0149660095103945 -1.7724496606794031 4.006915984569778 -1.683266238303578 C 4.019126696558354 -1.642654314726757 4.010172174433398 -1.6027659888974068 4.010714872744002 -1.563963059689264 C 4.0110766716177375 -1.5366472447222261 4.040382380390321 -1.5146679631427884 4.067155497046755 -1.5147584128612224" fill="#d56a34" transform="matrix(1,0,0,1,0,0)" fill-rule="nonzero"></path></g><g clip-path="url(#bad1f2bff-eab0-478e-9ee4-57cf11b112c9b3663a52-7c06-480e-80b9-7c9c4ab95df7)"><path d=" M 3.889602699761009 -1.7795047387172476 C 3.4909907906228126 -1.8087199977713972 3.0379281509874074 -1.8111621401691125 2.638230845228004 -1.7857457692891865 C 2.545158084959521 -1.7795047387172476 2.4895315081226723 -1.7353652761215044 2.500928172645344 -1.6903213163414221 C 2.5112394405468086 -1.6500711916383368 2.515761926468503 -1.6107255641195901 2.5148574292841643 -1.5723748835036169 C 2.5142697616177303 -1.5591720875253876 2.5190375853157416 -1.5462912717066883 2.5280798593109086 -1.5366529909510118 C 2.537122133306075 -1.527014710195335 2.549672824638394 -1.521435489277373 2.562886229772565 -1.5211803428700295 L 3.930485972493132 -1.5146679631427886 C 3.9571686394311323 -1.5145775134243546 3.986293448766848 -1.5365567950037922 3.9865647979221497 -1.5638726099708302 C 3.987107496232753 -1.602675539178973 3.9782434238262314 -1.6425638650083232 3.9903636860963734 -1.6831757885851442 C 3.988011993417093 -1.736722021898013 3.982404110874191 -1.7723592109609694 3.889602699761009 -1.7795047387172476" fill="#d56a34" transform="matrix(1,0,0,1,0,0)" fill-rule="nonzero"></path></g><g clip-path="url(#bad1f2bff-eab0-478e-9ee4-57cf11b112c9b3663a52-7c06-480e-80b9-7c9c4ab95df7)"><path d=" M 1.7166386641049978 -1.0579873347700277 C 2.052568918368502 -0.9886124007312265 2.262140915979848 -0.7718948753636021 2.4092121581533696 -0.4730490056579968 L 2.265306656125035 -0.41109094853077544 C 2.276522421210838 -0.4114527474045109 2.4225082667631526 -0.44003485842962364 2.4434021517213838 -0.43569327194479657 C 2.4633915394952752 -0.4306280877124977 2.501923119548117 -0.38196613919505973 2.4950489409471404 -0.34994693886945916 C 2.414186892667234 -0.252532592116149 2.1406669441231205 -0.19961950683231766 2.1219438524073033 -0.3176563893885569 C 2.1215820535335674 -0.319465383757235 2.1214916038151337 -0.3214552775627806 2.1214011540967 -0.3233547216498929 C 2.0222682626931454 -0.5233390491072454 1.879990855596621 -0.6987210531505772 1.6492536238717423 -0.7439459123675274 C 1.6422458164926355 -0.7452774547578569 1.6352202398609506 -0.7465137150235184 1.6281788394766432 -0.7476543508233173 C 1.6518766657063253 -0.8111500531639149 1.6674340172769562 -0.867047979156065 1.6788306817996275 -0.9271970419146087 C 1.5443319504884183 -0.527499736155205 1.167608873211225 -0.32190752615495066 0.7451182384064787 -0.32317382221302493 L 0.7141844347020848 -0.3232642719314587 L 0.7100237476541256 -0.45197422126289855 L 0.7097523984988239 -0.4512506235154272 C 0.7017928232766408 -0.3721975696041988 0.6643466398450061 -0.3090636661373365 0.6521359278564296 -0.30327488415756676 C 0.6221970710548087 -0.2955866580906852 0.56865083774194 -0.3019181383810583 0.5422395199592412 -0.3252541657370047 C 0.4990950042662709 -0.4027695744348567 0.5846604379047402 -0.643908523779634 0.7018832729950746 -0.6438180740612003 L 0.7374300123395973 -0.6435467249058986 C 1.0614209037698268 -0.6411950322266171 1.1811763309763101 -0.718077292895432 1.297946917474475 -0.8992480789185335 C 1.260229384887539 -0.9082930507619233 1.2112056374963651 -0.9430257426405411 1.1802718337919713 -0.9718792028209551 C 1.4368776849889455 -1.2770565528169335 1.3555633881168694 -1.6071075753822344 1.3357548997798454 -1.6825426405561068 C 1.2179493998660327 -1.7357904481654902 1.142253676787853 -1.853102894170242 1.1422829520497333 -1.9823834571644847 C 1.1422829520497333 -2.3343233115907895 1.6601075900838103 -2.4359887951104926 1.7817624613774057 -2.092189415343239 L 1.8211080888961522 -2.1001489905654225 C 1.8500906908866914 -2.105987789987539 1.8783447555366375 -2.0873134296609654 1.8843324420814482 -2.0583612206489605 C 1.8901188267001077 -2.029388864064361 1.8714669122122078 -2.0011687596768235 1.8425446721649865 -1.995136867463665 L 1.8004855530932231 -1.986544144212444 L 1.8004855530932231 -1.9822930074460507 C 1.8004855530932231 -1.9782227701165254 1.8004855530932231 -1.9741525327869998 1.8003046536563552 -1.9700822954574744 C 1.8047366898596162 -1.8642561248898115 1.7549893447209712 -1.7707311160291588 1.6681576150244273 -1.7184511787743648 C 1.6346951190611776 -1.6934915323317687 1.5967842919721305 -1.6751347107939143 1.5564522127585605 -1.6643622471508923 C 1.5966479357244348 -1.6628049382200898 1.6368851405827414 -1.666084650012314 1.6762980896834785 -1.6741308167417537 C 1.6829913688475868 -1.648714445861828 1.691041393788204 -1.6204036839920173 1.699091418728821 -1.5892889808507558 L 1.833861499195332 -1.5274213734419682 L 1.834765996379671 -1.5271500242866665 L 2.2212576432477253 -1.3462505874188666 C 2.2679355233564884 -1.3544575630372786 2.3148206951887422 -1.3329197903751204 2.3390048972248705 -1.2921607016693484 C 2.3631890992609983 -1.2514016129635765 2.359624018028228 -1.1999294342182532 2.330051564882055 -1.162893654826337 C 2.300479111735882 -1.1258578754344213 2.2510723666653734 -1.1109895019347904 2.2059716408323964 -1.1255532744401509 L 2.2057002916770942 -1.1256437241585848 L 2.203348598997813 -1.12645777162449 L 2.2026250012503423 -1.1267291207797916 L 2.2010873560369655 -1.127271819090395 L 2.199278361668288 -1.127995416837866 L 2.1984643142023828 -1.1283572157116017 C 2.1979876116281263 -1.1285529551168152 2.197504983543527 -1.12873394064854 2.19701711870744 -1.1288999140222051 L 2.1967457695521384 -1.129080813459073 L 2.1938513785622535 -1.1303471095171476 L 2.1936704791253856 -1.1304375592355815 C 2.187092133845574 -1.133475330997869 2.180822080439886 -1.1371404346794547 2.1749473874095684 -1.1413819751660832 L 2.174766487972701 -1.1414724248845174 L 2.172776594167155 -1.1429196203794598 L 2.1720529964196835 -1.143462318690063 L 2.1709675997984768 -1.144366815874402 C 2.1598021099299007 -1.153113974428993 2.1503822075019006 -1.163883960592602 2.1431995362392695 -1.1761146670447011 L 2.143018636802402 -1.1762051167631349 C 2.1128364731820533 -1.2269341254594195 2.1260153716581494 -1.2922811265085505 2.173500191914626 -1.3273465962661815 C 2.123406665064709 -1.3018297024299894 2.099141022587249 -1.243806494234674 2.1161550704275336 -1.1902248231203894 C 1.9940479505417688 -1.25471547236376 1.871759931219136 -1.3194774707624324 1.7501955096439745 -1.383968120005803 L 1.59353659731646 -1.471523447449818 L 1.739612892587208 -1.3412758529050022 C 1.7445320793782753 -1.246245642622957 1.7368064399841572 -1.1509830340309222 1.7166386641049973 -1.0579873347700273" fill="#3f170e" transform="matrix(1,0,0,1,0,0)" fill-rule="nonzero"></path></g><g clip-path="url(#bad1f2bff-eab0-478e-9ee4-57cf11b112c9b3663a52-7c06-480e-80b9-7c9c4ab95df7)"><path d=" M 1.6994532176025567 -2.239170207798327 C 1.496755398592187 -2.427124722703971 1.0997715843858002 -2.2872894580051617 1.1342329271091163 -1.9608564241772168 L 1.1356801226040587 -1.9496406590914133 L 1.1383031644386417 -1.9339928578023486 L 1.1384840638755094 -1.932817011462708 L 1.1537700662908386 -1.9377917459765723 C 1.1653476302503778 -1.940957486121759 1.1776487919573881 -1.9448468240144168 1.1907640011303036 -1.9494597596545455 C 1.1898630733913533 -1.949261449512632 1.1889584083139768 -1.9490805164971565 1.1880505095772862 -1.9489170613439422 L 1.5073380156489533 -2.0532960364166626 C 1.5099977492230838 -2.0537265338824455 1.5126264207142703 -2.05433082617927 1.5152071411527026 -2.0551050307853407 L 2.028237944109783 -2.2189094708691335 C 2.0970701798379805 -2.240888752448571 1.9727018169913684 -2.3442727806185184 1.8316002562344846 -2.289912499839745 Z" fill="#d56a34" transform="matrix(1,0,0,1,0,0)" fill-rule="nonzero"></path></g><g clip-path="url(#bad1f2bff-eab0-478e-9ee4-57cf11b112c9b3663a52-7c06-480e-80b9-7c9c4ab95df7)"><path d=" M 6.614490917300678 -1.0579873347700277 C 6.950421171564182 -0.9886124007312265 7.159993169175529 -0.7718948753636021 7.3070644113490495 -0.4730490056579968 L 7.163158909320716 -0.41109094853077544 C 7.174374674406518 -0.4114527474045109 7.320360519958834 -0.44003485842962364 7.3412544049170645 -0.43569327194479657 C 7.361243792690956 -0.4306280877124977 7.399775372743797 -0.38196613919505973 7.392901194142821 -0.34994693886945916 C 7.312039145862915 -0.252532592116149 7.0385191973188 -0.19961950683231766 7.019796105602984 -0.3176563893885569 C 7.019434306729247 -0.319465383757235 7.0193438570108135 -0.3214552775627806 7.01925340729238 -0.3233547216498929 C 6.920120515888826 -0.5233390491072454 6.7778431087923 -0.6987210531505772 6.547105877067423 -0.7439459123675274 C 6.540098069688316 -0.7452774547578569 6.533072493056631 -0.7465137150235184 6.526031092672323 -0.7476543508233173 C 6.549728918902005 -0.8111500531639149 6.565286270472637 -0.867047979156065 6.576682934995308 -0.9271970419146087 C 6.442184203684098 -0.527499736155205 6.065461126406905 -0.32190752615495066 5.642970491602158 -0.32317382221302493 L 5.612036687897765 -0.3232642719314587 L 5.6078760008498065 -0.45197422126289855 L 5.607604651694505 -0.4512506235154272 C 5.599645076472321 -0.3721975696041988 5.562198893040687 -0.3090636661373365 5.549988181052109 -0.30327488415756676 C 5.52004932425049 -0.2955866580906852 5.4665030909376195 -0.3019181383810583 5.440182222873355 -0.3252541657370047 C 5.396947257461951 -0.4027695744348567 5.4826031408188545 -0.643908523779634 5.599735526190754 -0.6438180740612003 L 5.635372715253711 -0.6435467249058986 C 5.95936360668394 -0.6411950322266171 6.079119033890425 -0.718077292895432 6.19588962038859 -0.8992480789185335 C 6.158172087801653 -0.9082930507619233 6.10914834041048 -0.9430257426405411 6.078214536706087 -0.9718792028209551 C 6.1816890145944665 -1.094981269609493 6.230170063675038 -1.2220631240091222 6.249888102293628 -1.3347634731777613 L 6.381311543178084 -1.4518958585496617 L 6.256762280894604 -1.3823400250739928 L 6.256762280894604 -1.3825209245108605 C 6.136011906785347 -1.3184825238596594 6.014718834365487 -1.2541727740531565 5.893425761945627 -1.1902248231203891 C 5.902561183507451 -1.2188069341455017 5.900390390265038 -1.2509165841895362 5.88510438784971 -1.2793177957777808 C 5.874076211963752 -1.2999542736961527 5.856958815789268 -1.3166926869295044 5.836080640458535 -1.3272561465477477 C 5.883673004563162 -1.2922661429791311 5.896904870992751 -1.2268506139736803 5.866652645289193 -1.176114667044701 L 5.866381296133891 -1.1760242173262672 C 5.8591986248712615 -1.1637935108741682 5.849778722443261 -1.1530235247105591 5.838613232574684 -1.1442763661559683 L 5.837527835953477 -1.143462318690063 L 5.836804238206007 -1.1428291706610256 L 5.834814344400462 -1.1413819751660832 L 5.834633444963593 -1.1412915254476494 C 5.828712125103545 -1.1371220614055586 5.822448772491763 -1.1334608746131636 5.815910353247775 -1.1303471095171476 L 5.815729453810908 -1.1302566597987138 L 5.812835062821023 -1.1289903637406389 L 5.812563713665721 -1.1288094643037714 C 5.812075848829634 -1.1286434909301057 5.811593220745035 -1.128462505398381 5.811116518170779 -1.1282667659931678 L 5.810392920423308 -1.1279049671194323 L 5.808493476336196 -1.1271813693719612 L 5.806955831122819 -1.1266386710613576 L 5.806232233375349 -1.126367321906056 C 5.805418185909444 -1.126186422469188 5.804694588161972 -1.1258246235954525 5.803880540696067 -1.1255532744401509 L 5.803609191540765 -1.1254628247217169 C 5.758508465707788 -1.1108990522163567 5.70910172063728 -1.125767425715987 5.679529267491107 -1.1628032051079031 C 5.649956814344934 -1.1998389844998192 5.6463917331121625 -1.2513111632451424 5.670575935148291 -1.2920702519509146 C 5.694760137184419 -1.3328293406566865 5.741645309016674 -1.3543671133188446 5.788323189125435 -1.3461601377004329 L 6.174814835993491 -1.5270595745682327 L 6.175719333177829 -1.5273309237235342 L 6.256038683147132 -1.5642344088445652 C 6.251477659074045 -1.6040786229153294 6.243980088804998 -1.6435315632423668 6.233607152975525 -1.6822712914008062 C 6.115803009080176 -1.735568824973998 6.040116265188351 -1.8529027393009234 6.040135205245413 -1.982202557727617 C 6.040135205245413 -2.3341424121539216 6.557959843279489 -2.435717445955191 6.679614714573086 -2.0919180661879375 L 6.718960342091833 -2.099968091128555 C 6.747961558907226 -2.1057499328779 6.776194929208515 -2.0870488592734704 6.782184695277129 -2.0580898714936593 C 6.787971079895788 -2.0291175149090592 6.769319165407888 -2.0008974105215223 6.740396925360667 -1.9948655183083632 L 6.698337806288903 -1.9862727950571426 L 6.698337806288903 -1.9821121080091832 C 6.698337806288903 -1.977951420961224 6.698337806288903 -1.9738811836316983 6.698156906852034 -1.969810946302173 C 6.7025889430552965 -1.8639847757345098 6.652841597916652 -1.770459766873857 6.566009868220107 -1.7182702793374969 C 6.532573001306671 -1.6932480878263307 6.494655632583129 -1.674857396437341 6.454304465954241 -1.664090897995591 C 6.495278188404798 -1.6625532527822147 6.535256963952582 -1.6658998923642687 6.574150342879159 -1.6739499173048862 C 6.608611685602474 -1.5443354707891075 6.675001778932957 -1.3425421489630767 6.614490917300678 -1.0579873347700277" fill="#3f170e" transform="matrix(1,0,0,1,0,0)" fill-rule="nonzero"></path></g><g clip-path="url(#bad1f2bff-eab0-478e-9ee4-57cf11b112c9b3663a52-7c06-480e-80b9-7c9c4ab95df7)"><path d=" M 6.5982099679825765 -2.23808481117712 C 6.394788551224735 -2.4284814684804794 5.996267091804972 -2.286837209412992 6.030909333965157 -1.9561530388186539 C 6.031271132838892 -1.9522637009259962 6.0318138311494955 -1.9484648127517725 6.032266079741664 -1.9447563742959826 L 6.0348891215762475 -1.9289276735700502 L 6.035160470731549 -1.9276613775119755 L 6.050446473146879 -1.932817011462708 C 6.062114486824852 -1.9359827516078942 6.074506098250296 -1.9398720895005521 6.087621307423211 -1.9445754748591149 C 6.086688313282046 -1.9443861373579958 6.085753628068508 -1.9442052305424726 6.084817366151764 -1.9440327765485121 L 6.405371168281503 -2.0497684973977406 C 6.408032707265983 -2.0502299330176275 6.410661325541 -2.050864427084011 6.413240293785252 -2.0516679414848524 L 6.928260990547878 -2.2175527250926246 C 6.9973645754313765 -2.2398033558273642 6.872453514274161 -2.34454412977382 6.730809255206674 -2.2894602512475752 Z" fill="#d56a34" transform="matrix(1,0,0,1,0,0)" fill-rule="nonzero"></path></g></g><g><path d=" M -0.045 1.1235000000000004 Q 0.021 0.9240000000000003 0.081 0.7320000000000002 Q 0.1065 0.6510000000000002 0.1335 0.5625000000000002 Q 0.1605 0.4740000000000003 0.1875 0.38700000000000023 Q 0.2145 0.30000000000000027 0.23775000000000002 0.2190000000000003 Q 0.261 0.13800000000000023 0.279 0.06900000000000017 Q 0.3615 0.06900000000000017 0.435 0.060000000000000275 Q 0.5085000000000001 0.051000000000000156 0.594 0.043500000000000316 Q 0.5895 0.07650000000000023 0.58425 0.11775000000000024 Q 0.579 0.15900000000000025 0.57225 0.2040000000000003 Q 0.5655 0.24900000000000022 0.558 0.29700000000000026 Q 0.5505 0.3450000000000003 0.54 0.42000000000000026 Q 0.5295 0.4950000000000002 0.5115000000000001 0.6075000000000003 L 0.531 0.6075000000000003 Q 0.5745 0.49350000000000027 0.603 0.4177500000000003 Q 0.6315000000000001 0.3420000000000003 0.6495 0.29400000000000026 Q 0.6675 0.24600000000000022 0.68625 0.20025000000000026 Q 0.705 0.1545000000000003 0.7222500000000001 0.1132500000000003 Q 0.7395 0.07200000000000029 0.7545000000000001 0.0405000000000002 Q 0.792 0.03750000000000031 0.8250000000000001 0.03300000000000036 Q 0.858 0.028500000000000192 0.891 0.023250000000000215 Q 0.924 0.018000000000000238 0.95775 0.012750000000000261 Q 0.9915 0.007500000000000284 1.032 2.220446049250313e-16 Q 1.0170000000000001 0.08700000000000019 1.0035 0.17850000000000021 Q 0.99 0.27000000000000024 0.9795 0.36075000000000024 Q 0.969 0.45150000000000023 0.95925 0.5400000000000003 Q 0.9495 0.6285000000000003 0.9420000000000001 0.7080000000000003 Q 0.924 0.8940000000000002 0.9105 1.0710000000000002 L 0.6495 1.1175000000000004 Q 0.6495 1.1100000000000003 0.65175 1.0770000000000002 Q 0.654 1.0440000000000003 0.6577500000000001 0.9960000000000002 Q 0.6615 0.9480000000000003 0.66825 0.8895000000000003 Q 0.675 0.8310000000000003 0.68175 0.7725000000000003 Q 0.6885 0.7140000000000003 0.6960000000000001 0.6592500000000003 Q 0.7035 0.6045000000000003 0.711 0.5655000000000002 L 0.6975 0.5655000000000002 Q 0.6765 0.6285000000000003 0.651 0.6982500000000003 Q 0.6255000000000001 0.7680000000000002 0.5992500000000001 0.8400000000000003 Q 0.5730000000000001 0.9120000000000003 0.5475 0.9810000000000003 Q 0.522 1.0500000000000003 0.5025000000000001 1.1130000000000002 Q 0.45 1.1145000000000003 0.41250000000000003 1.1167500000000004 Q 0.375 1.1190000000000002 0.3255 1.1220000000000003 L 0.3735 0.5655000000000002 L 0.35100000000000003 0.5655000000000002 Q 0.34800000000000003 0.5850000000000003 0.336 0.6307500000000003 Q 0.324 0.6765000000000003 0.30825 0.7357500000000003 Q 0.2925 0.7950000000000003 0.2745 0.8587500000000003 Q 0.2565 0.9225000000000003 0.24075 0.9772500000000003 Q 0.225 1.0320000000000003 0.2145 1.0672500000000003 Q 0.20400000000000001 1.1025000000000003 0.2025 1.1070000000000002 L -0.045 1.1235000000000004 M 1.74227783203125 0.5527500000000003 Q 1.71602783203125 0.6615000000000002 1.67252783203125 0.7522500000000003 Q 1.62902783203125 0.8430000000000003 1.57127783203125 0.9142500000000002 Q 1.51352783203125 0.9855000000000003 1.45052783203125 1.0357500000000002 Q 1.38752783203125 1.0860000000000003 1.32302783203125 1.1122500000000002 Q 1.25852783203125 1.1385000000000003 1.20002783203125 1.1385000000000003 Q 1.15052783203125 1.1385000000000003 1.11002783203125 1.1197500000000002 Q 1.06952783203125 1.1010000000000002 1.03952783203125 1.0642500000000004 Q 1.00952783203125 1.0275000000000003 0.99227783203125 0.9697500000000003 Q 0.97502783203125 0.9120000000000003 0.97502783203125 0.8310000000000003 Q 0.97502783203125 0.7470000000000003 0.99602783203125 0.6540000000000002 Q 1.01702783203125 0.5610000000000003 1.05302783203125 0.46950000000000025 Q 1.08902783203125 0.3780000000000002 1.14152783203125 0.2955000000000003 Q 1.19402783203125 0.2130000000000003 1.25702783203125 0.14925000000000022 Q 1.32002783203125 0.08550000000000035 1.39202783203125 0.048000000000000265 Q 1.4640278320312499 0.010500000000000176 1.5420278320312502 0.010500000000000176 Q 1.60952783203125 0.010500000000000176 1.65377783203125 0.03825000000000034 Q 1.6980278320312499 0.06600000000000028 1.72277783203125 0.11025000000000018 Q 1.74752783203125 0.1545000000000003 1.75802783203125 0.2100000000000003 Q 1.7685278320312499 0.2655000000000003 1.7685278320312499 0.3210000000000003 Q 1.7685278320312499 0.4440000000000003 1.74227783203125 0.5527500000000003 M 1.20452783203125 0.8265000000000002 Q 1.21052783203125 0.8445000000000003 1.22102783203125 0.8580000000000003 Q 1.23152783203125 0.8715000000000003 1.24727783203125 0.8812500000000003 Q 1.26302783203125 0.8910000000000002 1.28102783203125 0.8910000000000002 Q 1.34852783203125 0.8910000000000002 1.4010278320312501 0.8445000000000003 Q 1.45352783203125 0.7980000000000003 1.4880278320312499 0.7305000000000003 Q 1.5225278320312499 0.6630000000000003 1.5412778320312501 0.5865000000000002 Q 1.56002783203125 0.5100000000000002 1.56002783203125 0.4470000000000003 Q 1.56002783203125 0.42900000000000027 1.5577778320312499 0.40800000000000025 Q 1.55552783203125 0.38700000000000023 1.54877783203125 0.3690000000000002 Q 1.5420278320312502 0.3510000000000003 1.52777783203125 0.3382500000000003 Q 1.51352783203125 0.32550000000000023 1.48952783203125 0.32550000000000023 Q 1.44152783203125 0.32550000000000023 1.4010278320312501 0.34950000000000025 Q 1.36052783203125 0.3735000000000003 1.32827783203125 0.41325000000000023 Q 1.29602783203125 0.4530000000000003 1.2720278320312501 0.5032500000000003 Q 1.2480278320312501 0.5535000000000003 1.23077783203125 0.6052500000000003 Q 1.2135278320312501 0.6570000000000003 1.20602783203125 0.7065000000000003 Q 1.19852783203125 0.7560000000000002 1.19852783203125 0.7920000000000003 Q 1.19852783203125 0.8085000000000002 1.20452783203125 0.8265000000000002 M 1.756499267578125 1.1460000000000004 Q 1.775999267578125 0.9360000000000003 1.792499267578125 0.7335000000000003 Q 1.7999992675781251 0.6495000000000003 1.806749267578125 0.5565000000000002 Q 1.813499267578125 0.46350000000000025 1.818749267578125 0.37275000000000025 Q 1.823999267578125 0.28200000000000025 1.826999267578125 0.19725000000000026 Q 1.829999267578125 0.11250000000000027 1.831499267578125 0.04200000000000026 Q 1.867499267578125 0.04200000000000026 1.908749267578125 0.0405000000000002 Q 1.949999267578125 0.03900000000000037 1.983749267578125 0.03750000000000031 Q 2.017499267578125 0.036000000000000254 2.041499267578125 0.03375000000000017 Q 2.065499267578125 0.031500000000000306 2.065499267578125 0.031500000000000306 Q 2.0489992675781252 0.20550000000000024 2.0369992675781248 0.31725000000000025 Q 2.024999267578125 0.42900000000000027 2.018249267578125 0.49875000000000025 Q 2.011499267578125 0.5685000000000002 2.006249267578125 0.6330000000000002 Q 2.000999267578125 0.6975000000000002 1.994999267578125 0.7530000000000003 Q 1.988999267578125 0.8085000000000002 1.984499267578125 0.8475000000000003 L 2.011499267578125 0.8475000000000003 L 2.179499267578125 0.04950000000000032 Q 2.219999267578125 0.048000000000000265 2.261999267578125 0.04500000000000015 Q 2.299499267578125 0.04200000000000026 2.3407492675781247 0.0405000000000002 Q 2.381999267578125 0.03900000000000037 2.416499267578125 0.0345000000000002 Q 2.395499267578125 0.10050000000000026 2.373749267578125 0.18000000000000027 Q 2.351999267578125 0.2595000000000003 2.328749267578125 0.3450000000000003 Q 2.305499267578125 0.4305000000000002 2.2837492675781252 0.5190000000000002 Q 2.261999267578125 0.6075000000000003 2.240999267578125 0.6900000000000003 Q 2.192999267578125 0.8835000000000003 2.144999267578125 1.0875000000000004 L 1.756499267578125 1.1460000000000004 M 2.248541748046875 1.1340000000000003 L 2.445041748046875 0.06750000000000034 L 2.919041748046875 0.027000000000000357 Q 2.908541748046875 0.060000000000000275 2.901041748046875 0.09450000000000025 Q 2.893541748046875 0.12300000000000022 2.8867917480468748 0.15375000000000028 Q 2.880041748046875 0.18450000000000022 2.8755417480468752 0.20850000000000024 Q 2.860541748046875 0.2100000000000003 2.832791748046875 0.21075000000000021 Q 2.8050417480468752 0.21150000000000024 2.773541748046875 0.21225000000000027 Q 2.742041748046875 0.2130000000000003 2.709791748046875 0.2130000000000003 Q 2.677541748046875 0.2130000000000003 2.653541748046875 0.2130000000000003 L 2.601041748046875 0.48150000000000026 Q 2.647541748046875 0.47850000000000026 2.6880417480468752 0.4770000000000003 Q 2.721041748046875 0.47550000000000026 2.755541748046875 0.47550000000000026 Q 2.790041748046875 0.47550000000000026 2.8065417480468753 0.4740000000000003 Q 2.800541748046875 0.5160000000000002 2.795291748046875 0.5565000000000002 Q 2.790041748046875 0.5970000000000003 2.7825417480468753 0.6390000000000002 Q 2.767541748046875 0.6405000000000003 2.733791748046875 0.6412500000000003 Q 2.700041748046875 0.6420000000000003 2.665541748046875 0.6435000000000003 Q 2.626541748046875 0.6450000000000002 2.580041748046875 0.6465000000000003 L 2.529041748046875 0.9225000000000003 L 2.748041748046875 0.8880000000000003 L 2.733041748046875 1.0590000000000004 L 2.248541748046875 1.1340000000000003 M 2.754046875 1.1340000000000003 Q 2.794546875 0.9345000000000003 2.832046875 0.7440000000000002 Q 2.845546875 0.6630000000000003 2.862046875 0.5752500000000003 Q 2.878546875 0.48750000000000027 2.892796875 0.4012500000000002 Q 2.907046875 0.3150000000000003 2.919796875 0.23475000000000024 Q 2.932546875 0.1545000000000003 2.940046875 0.08850000000000025 Q 3.025546875 0.06150000000000033 3.124546875 0.04875000000000029 Q 3.2235468750000003 0.036000000000000254 3.321046875 0.036000000000000254 Q 3.379546875 0.036000000000000254 3.417796875 0.04950000000000032 Q 3.456046875 0.06300000000000017 3.477796875 0.08775000000000022 Q 3.499546875 0.11250000000000027 3.508546875 0.1455000000000003 Q 3.517546875 0.17850000000000021 3.517546875 0.2190000000000003 Q 3.517546875 0.27900000000000025 3.496546875 0.3367500000000002 Q 3.475546875 0.3945000000000003 3.440296875 0.44625000000000026 Q 3.405046875 0.4980000000000002 3.359296875 0.5407500000000003 Q 3.313546875 0.5835000000000002 3.261046875 0.6105000000000003 Q 3.288046875 0.6705000000000003 3.318796875 0.7417500000000004 Q 3.349546875 0.8130000000000003 3.376546875 0.8775000000000003 Q 3.406546875 0.9525000000000003 3.438046875 1.0275000000000003 L 3.205546875 1.1085000000000003 Q 3.175546875 1.0125000000000002 3.151546875 0.9285000000000003 Q 3.141046875 0.8940000000000002 3.130546875 0.8572500000000003 Q 3.120046875 0.8205000000000002 3.111046875 0.7875000000000003 Q 3.102046875 0.7545000000000003 3.096046875 0.7282500000000003 Q 3.090046875 0.7020000000000003 3.088546875 0.6855000000000002 L 3.069046875 0.6915000000000002 Q 3.060046875 0.7395000000000003 3.047296875 0.8040000000000003 Q 3.034546875 0.8685000000000003 3.024046875 0.9285000000000003 Q 3.010546875 0.9990000000000003 2.997046875 1.0710000000000002 L 2.754046875 1.1340000000000003 M 3.106546875 0.4830000000000003 Q 3.135046875 0.4800000000000003 3.1762968750000002 0.4590000000000003 Q 3.217546875 0.4380000000000003 3.255046875 0.4087500000000003 Q 3.292546875 0.3795000000000003 3.319546875 0.3480000000000003 Q 3.346546875 0.3165000000000002 3.346546875 0.2925000000000003 Q 3.346546875 0.27600000000000025 3.336046875 0.2662500000000003 Q 3.325546875 0.2565000000000003 3.306796875 0.2512500000000003 Q 3.288046875 0.24600000000000022 3.265546875 0.24450000000000027 Q 3.243046875 0.24300000000000022 3.219046875 0.24300000000000022 Q 3.202546875 0.24300000000000022 3.185296875 0.24375000000000024 Q 3.168046875 0.24450000000000027 3.154546875 0.24450000000000027 L 3.106546875 0.4830000000000003 M 3.661512451171875 1.1235000000000004 Q 3.727512451171875 0.9240000000000003 3.787512451171875 0.7320000000000002 Q 3.813012451171875 0.6510000000000002 3.840012451171875 0.5625000000000002 Q 3.867012451171875 0.4740000000000003 3.894012451171875 0.38700000000000023 Q 3.921012451171875 0.30000000000000027 3.944262451171875 0.2190000000000003 Q 3.967512451171875 0.13800000000000023 3.985512451171875 0.06900000000000017 Q 4.068012451171875 0.06900000000000017 4.141512451171875 0.060000000000000275 Q 4.215012451171875 0.051000000000000156 4.300512451171875 0.043500000000000316 Q 4.296012451171875 0.07650000000000023 4.290762451171875 0.11775000000000024 Q 4.285512451171875 0.15900000000000025 4.278762451171875 0.2040000000000003 Q 4.272012451171875 0.24900000000000022 4.264512451171875 0.29700000000000026 Q 4.2570124511718745 0.3450000000000003 4.246512451171875 0.42000000000000026 Q 4.236012451171875 0.4950000000000002 4.218012451171875 0.6075000000000003 L 4.237512451171875 0.6075000000000003 Q 4.2810124511718755 0.49350000000000027 4.309512451171875 0.4177500000000003 Q 4.338012451171875 0.3420000000000003 4.356012451171875 0.29400000000000026 Q 4.374012451171875 0.24600000000000022 4.392762451171875 0.20025000000000026 Q 4.411512451171875 0.1545000000000003 4.428762451171875 0.1132500000000003 Q 4.446012451171875 0.07200000000000029 4.461012451171875 0.0405000000000002 Q 4.498512451171875 0.03750000000000031 4.531512451171875 0.03300000000000036 Q 4.564512451171875 0.028500000000000192 4.597512451171875 0.023250000000000215 Q 4.630512451171875 0.018000000000000238 4.664262451171875 0.012750000000000261 Q 4.698012451171875 0.007500000000000284 4.738512451171875 2.220446049250313e-16 Q 4.723512451171875 0.08700000000000019 4.710012451171875 0.17850000000000021 Q 4.696512451171875 0.27000000000000024 4.686012451171875 0.36075000000000024 Q 4.675512451171875 0.45150000000000023 4.665762451171875 0.5400000000000003 Q 4.6560124511718755 0.6285000000000003 4.648512451171875 0.7080000000000003 Q 4.630512451171875 0.8940000000000002 4.617012451171875 1.0710000000000002 L 4.356012451171875 1.1175000000000004 Q 4.356012451171875 1.1100000000000003 4.358262451171875 1.0770000000000002 Q 4.360512451171875 1.0440000000000003 4.364262451171875 0.9960000000000002 Q 4.368012451171875 0.9480000000000003 4.3747624511718755 0.8895000000000003 Q 4.381512451171875 0.8310000000000003 4.388262451171875 0.7725000000000003 Q 4.395012451171875 0.7140000000000003 4.402512451171875 0.6592500000000003 Q 4.410012451171875 0.6045000000000003 4.417512451171875 0.5655000000000002 L 4.404012451171875 0.5655000000000002 Q 4.383012451171875 0.6285000000000003 4.357512451171875 0.6982500000000003 Q 4.332012451171875 0.7680000000000002 4.305762451171875 0.8400000000000003 Q 4.279512451171875 0.9120000000000003 4.254012451171875 0.9810000000000003 Q 4.228512451171875 1.0500000000000003 4.209012451171875 1.1130000000000002 Q 4.156512451171875 1.1145000000000003 4.119012451171875 1.1167500000000004 Q 4.081512451171875 1.1190000000000002 4.032012451171875 1.1220000000000003 L 4.080012451171875 0.5655000000000002 L 4.057512451171875 0.5655000000000002 Q 4.054512451171875 0.5850000000000003 4.042512451171875 0.6307500000000003 Q 4.030512451171875 0.6765000000000003 4.014762451171875 0.7357500000000003 Q 3.999012451171875 0.7950000000000003 3.981012451171875 0.8587500000000003 Q 3.963012451171875 0.9225000000000003 3.947262451171875 0.9772500000000003 Q 3.931512451171875 1.0320000000000003 3.921012451171875 1.0672500000000003 Q 3.910512451171875 1.1025000000000003 3.909012451171875 1.1070000000000002 L 3.661512451171875 1.1235000000000004 M 4.647040283203125 1.1340000000000003 L 4.843540283203125 0.06750000000000034 L 5.317540283203125 0.027000000000000357 Q 5.307040283203125 0.060000000000000275 5.299540283203125 0.09450000000000025 Q 5.292040283203125 0.12300000000000022 5.285290283203125 0.15375000000000028 Q 5.2785402832031245 0.18450000000000022 5.274040283203125 0.20850000000000024 Q 5.259040283203125 0.2100000000000003 5.231290283203125 0.21075000000000021 Q 5.203540283203125 0.21150000000000024 5.172040283203125 0.21225000000000027 Q 5.140540283203125 0.2130000000000003 5.108290283203125 0.2130000000000003 Q 5.076040283203125 0.2130000000000003 5.052040283203125 0.2130000000000003 L 4.999540283203125 0.48150000000000026 Q 5.046040283203125 0.47850000000000026 5.086540283203125 0.4770000000000003 Q 5.119540283203125 0.47550000000000026 5.154040283203125 0.47550000000000026 Q 5.188540283203125 0.47550000000000026 5.205040283203125 0.4740000000000003 Q 5.199040283203125 0.5160000000000002 5.193790283203125 0.5565000000000002 Q 5.188540283203125 0.5970000000000003 5.181040283203125 0.6390000000000002 Q 5.166040283203125 0.6405000000000003 5.132290283203125 0.6412500000000003 Q 5.098540283203125 0.6420000000000003 5.064040283203125 0.6435000000000003 Q 5.025040283203125 0.6450000000000002 4.978540283203125 0.6465000000000003 L 4.927540283203125 0.9225000000000003 L 5.146540283203125 0.8880000000000003 L 5.131540283203125 1.0590000000000004 L 4.647040283203125 1.1340000000000003 M 5.28154541015625 1.1340000000000003 Q 5.31604541015625 0.9690000000000003 5.34754541015625 0.8085000000000002 Q 5.36104541015625 0.7410000000000003 5.37454541015625 0.6675000000000002 Q 5.38804541015625 0.5940000000000003 5.40079541015625 0.5227500000000003 Q 5.41354541015625 0.45150000000000023 5.42329541015625 0.38475000000000026 Q 5.43304541015625 0.3180000000000003 5.44054541015625 0.2625000000000003 Q 5.40604541015625 0.25800000000000023 5.37079541015625 0.2595000000000003 Q 5.33554541015625 0.26100000000000023 5.30104541015625 0.2505000000000003 Q 5.30254541015625 0.22650000000000026 5.30254541015625 0.19500000000000028 Q 5.30254541015625 0.1635000000000003 5.30404541015625 0.13200000000000034 Q 5.30554541015625 0.09750000000000036 5.30704541015625 0.05850000000000022 Q 5.3460454101562505 0.06150000000000033 5.38504541015625 0.06300000000000017 Q 5.42404541015625 0.06450000000000022 5.46304541015625 0.06450000000000022 Q 5.53954541015625 0.06450000000000022 5.61079541015625 0.060750000000000304 Q 5.68204541015625 0.05700000000000016 5.74279541015625 0.051750000000000185 Q 5.80354541015625 0.04650000000000021 5.8620454101562505 0.03900000000000037 L 5.84554541015625 0.12000000000000033 Q 5.83804541015625 0.1545000000000003 5.83129541015625 0.19050000000000022 Q 5.82454541015625 0.22650000000000026 5.81854541015625 0.2520000000000002 Q 5.78554541015625 0.26100000000000023 5.75179541015625 0.26475000000000026 Q 5.71804541015625 0.2685000000000003 5.68504541015625 0.2745000000000003 Q 5.6745454101562505 0.32550000000000023 5.66254541015625 0.38775000000000026 Q 5.65054541015625 0.4500000000000003 5.63929541015625 0.5167500000000003 Q 5.62804541015625 0.5835000000000002 5.61754541015625 0.6525000000000003 Q 5.60704541015625 0.7215000000000003 5.59654541015625 0.7845000000000002 Q 5.57254541015625 0.9330000000000003 5.55154541015625 1.0920000000000003 L 5.28154541015625 1.1340000000000003 M 5.695544677734375 1.1340000000000003 Q 5.736044677734375 0.9345000000000003 5.773544677734375 0.7440000000000002 Q 5.787044677734375 0.6630000000000003 5.803544677734375 0.5752500000000003 Q 5.820044677734375 0.48750000000000027 5.834294677734375 0.4012500000000002 Q 5.848544677734375 0.3150000000000003 5.861294677734375 0.23475000000000024 Q 5.874044677734375 0.1545000000000003 5.881544677734375 0.08850000000000025 Q 5.967044677734375 0.06150000000000033 6.066044677734375 0.04875000000000029 Q 6.165044677734375 0.036000000000000254 6.262544677734375 0.036000000000000254 Q 6.321044677734375 0.036000000000000254 6.3592946777343755 0.04950000000000032 Q 6.397544677734375 0.06300000000000017 6.419294677734375 0.08775000000000022 Q 6.441044677734375 0.11250000000000027 6.450044677734375 0.1455000000000003 Q 6.459044677734375 0.17850000000000021 6.459044677734375 0.2190000000000003 Q 6.459044677734375 0.27900000000000025 6.438044677734375 0.3367500000000002 Q 6.417044677734375 0.3945000000000003 6.381794677734375 0.44625000000000026 Q 6.346544677734375 0.4980000000000002 6.300794677734375 0.5407500000000003 Q 6.255044677734375 0.5835000000000002 6.202544677734375 0.6105000000000003 Q 6.229544677734375 0.6705000000000003 6.260294677734375 0.7417500000000004 Q 6.291044677734375 0.8130000000000003 6.318044677734375 0.8775000000000003 Q 6.348044677734375 0.9525000000000003 6.379544677734375 1.0275000000000003 L 6.147044677734375 1.1085000000000003 Q 6.117044677734375 1.0125000000000002 6.093044677734375 0.9285000000000003 Q 6.082544677734375 0.8940000000000002 6.072044677734375 0.8572500000000003 Q 6.061544677734375 0.8205000000000002 6.0525446777343745 0.7875000000000003 Q 6.043544677734375 0.7545000000000003 6.037544677734375 0.7282500000000003 Q 6.031544677734375 0.7020000000000003 6.0300446777343755 0.6855000000000002 L 6.010544677734375 0.6915000000000002 Q 6.001544677734375 0.7395000000000003 5.988794677734375 0.8040000000000003 Q 5.976044677734375 0.8685000000000003 5.965544677734375 0.9285000000000003 Q 5.952044677734375 0.9990000000000003 5.938544677734375 1.0710000000000002 L 5.695544677734375 1.1340000000000003 M 6.048044677734375 0.4830000000000003 Q 6.0765446777343755 0.4800000000000003 6.117794677734375 0.4590000000000003 Q 6.159044677734375 0.4380000000000003 6.196544677734375 0.4087500000000003 Q 6.234044677734375 0.3795000000000003 6.261044677734375 0.3480000000000003 Q 6.288044677734375 0.3165000000000002 6.288044677734375 0.2925000000000003 Q 6.288044677734375 0.27600000000000025 6.277544677734375 0.2662500000000003 Q 6.267044677734375 0.2565000000000003 6.248294677734375 0.2512500000000003 Q 6.229544677734375 0.24600000000000022 6.207044677734375 0.24450000000000027 Q 6.184544677734375 0.24300000000000022 6.160544677734375 0.24300000000000022 Q 6.144044677734375 0.24300000000000022 6.126794677734375 0.24375000000000024 Q 6.109544677734375 0.24450000000000027 6.096044677734375 0.24450000000000027 L 6.048044677734375 0.4830000000000003 M 6.557249267578125 1.1062500000000002 Q 6.517499267578125 1.1100000000000003 6.475499267578125 1.1152500000000003 Q 6.433499267578125 1.1205000000000003 6.399749267578125 1.1250000000000002 Q 6.365999267578125 1.1295000000000004 6.362999267578125 1.1310000000000002 Q 6.377999267578125 1.0665000000000002 6.393749267578125 0.9877500000000003 Q 6.409499267578125 0.9090000000000003 6.425999267578125 0.8227500000000003 Q 6.442499267578125 0.7365000000000003 6.457499267578125 0.6480000000000004 Q 6.472499267578125 0.5595000000000002 6.485999267578125 0.4770000000000003 Q 6.517499267578125 0.28500000000000025 6.548999267578125 0.08250000000000024 L 6.782999267578125 0.04500000000000015 Q 6.748499267578125 0.24600000000000022 6.715499267578125 0.4395000000000002 Q 6.701999267578125 0.5220000000000002 6.687749267578125 0.6105000000000003 Q 6.673499267578125 0.6990000000000003 6.659249267578125 0.7860000000000003 Q 6.644999267578125 0.8730000000000002 6.632999267578125 0.9547500000000003 Q 6.620999267578125 1.0365000000000002 6.610499267578125 1.1025000000000003 Q 6.596999267578125 1.1025000000000003 6.557249267578125 1.1062500000000002 M 7.218788818359375 0.9532500000000003 Q 7.174538818359375 1.0140000000000002 7.125788818359375 1.0552500000000002 Q 7.077038818359375 1.0965000000000003 7.027538818359375 1.1160000000000003 Q 6.978038818359375 1.1355000000000002 6.931538818359375 1.1355000000000002 Q 6.885038818359375 1.1355000000000002 6.846788818359375 1.1145000000000003 Q 6.808538818359375 1.0935000000000004 6.780038818359375 1.0515000000000003 Q 6.751538818359375 1.0095000000000003 6.734288818359375 0.9480000000000003 Q 6.717038818359375 0.8865000000000003 6.717038818359375 0.8040000000000003 Q 6.717038818359375 0.6630000000000003 6.756038818359375 0.5257500000000003 Q 6.795038818359375 0.3885000000000003 6.865538818359375 0.27900000000000025 Q 6.936038818359375 0.16950000000000032 7.032788818359375 0.10275000000000034 Q 7.129538818359375 0.036000000000000254 7.246538818359375 0.036000000000000254 Q 7.282538818359375 0.036000000000000254 7.315538818359375 0.051000000000000156 Q 7.348538818359375 0.06600000000000028 7.372538818359375 0.0930000000000002 Q 7.3965388183593745 0.12000000000000033 7.410788818359375 0.15900000000000025 Q 7.425038818359375 0.1980000000000003 7.425038818359375 0.24600000000000022 Q 7.425038818359375 0.2550000000000002 7.425038818359375 0.26475000000000026 Q 7.425038818359375 0.2745000000000003 7.423538818359375 0.28500000000000025 L 7.227038818359375 0.33750000000000024 Q 7.2090388183593745 0.30000000000000027 7.185038818359375 0.30000000000000027 Q 7.161038818359375 0.30000000000000027 7.134788818359375 0.3277500000000003 Q 7.108538818359375 0.35550000000000026 7.083038818359375 0.39975000000000027 Q 7.057538818359375 0.4440000000000003 7.033538818359375 0.49875000000000025 Q 7.009538818359375 0.5535000000000003 6.991538818359375 0.6090000000000003 Q 6.973538818359375 0.6645000000000003 6.962288818359375 0.7147500000000002 Q 6.951038818359375 0.7650000000000003 6.951038818359375 0.7965000000000002 Q 6.951038818359375 0.8445000000000003 6.963788818359375 0.8640000000000003 Q 6.976538818359375 0.8835000000000003 6.997538818359375 0.8835000000000003 Q 7.014038818359375 0.8835000000000003 7.035038818359375 0.8707500000000004 Q 7.056038818359375 0.8580000000000003 7.074038818359375 0.8377500000000002 Q 7.092038818359375 0.8175000000000003 7.107038818359375 0.7920000000000003 Q 7.122038818359375 0.7665000000000003 7.128038818359375 0.7410000000000003 L 7.299038818359375 0.8100000000000003 Q 7.263038818359375 0.8925000000000003 7.218788818359375 0.9532500000000003 M 7.911791015625 0.9142500000000002 Q 7.879541015625 0.9825000000000003 7.824791015625 1.0320000000000003 Q 7.770041015625 1.0815000000000003 7.695791015625 1.1085000000000003 Q 7.621541015625 1.1355000000000002 7.536041015625 1.1355000000000002 Q 7.476041015625 1.1355000000000002 7.416041015625 1.1032500000000003 Q 7.356041015625 1.0710000000000002 7.300541015625 1.0005000000000002 L 7.411541015625 0.7830000000000003 Q 7.422041015625 0.8025000000000002 7.443041015625 0.8227500000000003 Q 7.464041015625 0.8430000000000003 7.490291015625 0.8580000000000003 Q 7.516541015625 0.8730000000000002 7.542791015625 0.8827500000000003 Q 7.569041015625 0.8925000000000003 7.590041015625 0.8925000000000003 Q 7.608041015625 0.8925000000000003 7.627541015625 0.8865000000000003 Q 7.647041015625 0.8805000000000003 7.663541015625 0.8685000000000003 Q 7.680041015625 0.8565000000000003 7.689791015625 0.8407500000000003 Q 7.699541015625 0.8250000000000003 7.699541015625 0.8040000000000003 Q 7.699541015625 0.7680000000000002 7.676291015625 0.7372500000000003 Q 7.653041015625 0.7065000000000003 7.618541015625 0.6787500000000003 Q 7.584041015625 0.6510000000000002 7.543541015625 0.6225000000000003 Q 7.503041015625 0.5940000000000003 7.469291015625 0.5625000000000002 Q 7.435541015625 0.5310000000000002 7.411541015625 0.4920000000000003 Q 7.387541015625 0.4530000000000003 7.387541015625 0.40500000000000025 Q 7.387541015625 0.3270000000000003 7.434041015625 0.2595000000000003 Q 7.480541015625 0.19200000000000028 7.550291015625 0.1432500000000002 Q 7.6200410156250005 0.09450000000000025 7.702541015625 0.06600000000000028 Q 7.785041015625 0.03750000000000031 7.858541015625 0.03750000000000031 Q 7.899041015625 0.03750000000000031 7.935041015625 0.047250000000000236 Q 7.971041015625 0.05700000000000016 7.997291015625 0.07875000000000032 Q 8.023541015625 0.10050000000000026 8.039291015625 0.13350000000000029 Q 8.055041015625 0.16650000000000031 8.055041015625 0.2160000000000003 Q 8.055041015625 0.2370000000000002 8.051291015625 0.25800000000000023 Q 8.047541015625 0.27900000000000025 8.044541015625 0.30300000000000027 L 7.827041015625 0.3660000000000002 Q 7.8300410156249995 0.3540000000000003 7.832291015625 0.3420000000000003 Q 7.834541015625 0.3300000000000003 7.834541015625 0.3180000000000003 Q 7.834541015625 0.27300000000000024 7.818791015625 0.25275000000000025 Q 7.803041015625 0.23250000000000026 7.777541015625 0.23250000000000026 Q 7.765541015625 0.23250000000000026 7.748291015625 0.24150000000000027 Q 7.731041015625 0.2505000000000003 7.7137910156250005 0.26475000000000026 Q 7.696541015625 0.27900000000000025 7.684541015625 0.2985000000000003 Q 7.672541015625 0.3180000000000003 7.672541015625 0.34050000000000025 Q 7.672541015625 0.3765000000000003 7.692791015625 0.4005000000000003 Q 7.713041015625 0.4245000000000003 7.743041015625 0.44550000000000023 Q 7.773041015625 0.46650000000000025 7.8082910156250005 0.4882500000000003 Q 7.843541015625 0.5100000000000002 7.873541015625 0.5445000000000003 Q 7.903541015625 0.5790000000000003 7.9237910156249995 0.6307500000000003 Q 7.944041015625 0.6825000000000003 7.944041015625 0.7620000000000002 Q 7.944041015625 0.8460000000000003 7.911791015625 0.9142500000000002" fill="#3f170e" fill-rule="nonzero"></path></g><g></g></g><defs><clipPath id="SvgjsClipPath197020"><path d=" M 0.5308428554365698 -2.548333091238125 h 6.862844318423735 v 2.298333091238125 h -6.862844318423735 Z"></path></clipPath><clipPath id="SvgjsClipPath197015b3663a52-7c06-480e-80b9-7c9c4ab95df7"><path d=" M 0.5308428554365698 -2.548333091238125 L 7.393687173860306 -2.548333091238125 L 7.393687173860306 -0.25 L 0.5308428554365698 -0.25 Z"></path></clipPath><clipPath id="aad1f2bff-eab0-478e-9ee4-57cf11b112c9b3663a52-7c06-480e-80b9-7c9c4ab95df7"><path d=" M 0.5308428554365698 -0.25 L 7.393624791890291 -0.25 L 7.393624791890291 -2.5483273454053967 L 0.5308428554365698 -2.5483273454053967 Z"></path></clipPath><clipPath id="bad1f2bff-eab0-478e-9ee4-57cf11b112c9b3663a52-7c06-480e-80b9-7c9c4ab95df7"><path d=" M 0.5308428554365698 -0.25 L 7.393624791890291 -0.25 L 7.393624791890291 -2.5483273454053967 L 0.5308428554365698 -2.5483273454053967 Z"></path></clipPath></defs></svg>