<svg xmlns="http://www.w3.org/2000/svg" xmlns:xlink="http://www.w3.org/1999/xlink" width="500" zoomAndPan="magnify" viewBox="0 0 375 374.999991" height="500" preserveAspectRatio="xMidYMid meet" version="1.0"><defs><clipPath id="a835ee9232"><path d="M 1.195312 0 L 322 0 L 322 353 L 1.195312 353 Z M 1.195312 0 " clip-rule="nonzero"/></clipPath><clipPath id="122bbff727"><path d="M 1.195312 135 L 131 135 L 131 321 L 1.195312 321 Z M 1.195312 135 " clip-rule="nonzero"/></clipPath><clipPath id="28a83ae445"><path d="M 3 123 L 373.945312 123 L 373.945312 375 L 3 375 Z M 3 123 " clip-rule="nonzero"/></clipPath><clipPath id="e5ddb24722"><path d="M 1.195312 208 L 161 208 L 161 357 L 1.195312 357 Z M 1.195312 208 " clip-rule="nonzero"/></clipPath><clipPath id="0ebaf7f63d"><path d="M 244 258 L 373.945312 258 L 373.945312 360 L 244 360 Z M 244 258 " clip-rule="nonzero"/></clipPath></defs><g clip-path="url(#a835ee9232)"><path fill="#0066ff" d="M 281.542969 292.933594 C 245.050781 297.960938 219.464844 276.199219 226.570312 223.839844 C 233.589844 178.554688 220.441406 125.148438 218.015625 124.28125 C 217.285156 121.960938 214.574219 113.628906 214.453125 113.328125 C 214.304688 112.9375 213.617188 111.082031 213.40625 110.542969 C 204.304688 85.050781 194.035156 75.445312 186.132812 72.808594 C 180.566406 70.953125 175.386719 72.421875 169.21875 76.070312 C 162.78125 79.902344 155.597656 87.921875 146.917969 102.433594 C 139.882812 114.253906 131.019531 135.292969 131.019531 135.292969 C 130.992188 135.351562 130.960938 135.410156 130.929688 135.472656 C 130.570312 136.28125 130.210938 137.117188 129.851562 137.957031 C 126.949219 144.71875 123.925781 152.167969 120.722656 160.367188 C 88.480469 243.46875 121.621094 360.292969 40.222656 351.644531 C -35.875 343.566406 18.90625 172.457031 51.238281 116.710938 C 83.570312 60.929688 147.695312 -31.597656 211.519531 10.808594 C 275.34375 53.210938 310.460938 145.554688 318.394531 190.503906 C 327.613281 242.691406 315.820312 288.207031 281.542969 292.933594 Z M 281.542969 292.933594 " fill-opacity="1" fill-rule="evenodd"/></g><g clip-path="url(#122bbff727)"><path fill="#002fa3" d="M 1.785156 288.144531 C 1.515625 288.863281 2.441406 308.496094 3.460938 314.628906 C 4.476562 320.765625 8.308594 320.765625 8.308594 320.765625 C 8.308594 320.765625 30.34375 278.269531 58.273438 236.316406 C 86.234375 194.394531 117.996094 169.527344 117.996094 169.527344 C 123.625 150.792969 130.960938 135.472656 130.960938 135.472656 C 130.960938 135.472656 34.503906 196.519531 1.785156 288.144531 Z M 1.785156 288.144531 " fill-opacity="1" fill-rule="evenodd"/></g><g clip-path="url(#28a83ae445)"><path fill="#0066ff" d="M 371.859375 283.027344 C 363.898438 326.929688 344.089844 358.617188 306.300781 371.695312 C 299.59375 373.761719 294.203125 375.496094 282.46875 374.808594 C 272.292969 374.207031 242.851562 366.925781 244.390625 334.949219 C 245.675781 300.144531 278.039062 297.753906 289.175781 299.605469 C 299.175781 301.28125 305.25 303.765625 313.902344 306.21875 C 331.386719 311.1875 355.875 312.503906 365.335938 283.988281 C 367.339844 277.941406 367.910156 270.851562 367.128906 263.25 C 364.554688 238.054688 347.402344 206.960938 319.589844 187.449219 C 296.570312 171.320312 266.304688 163.121094 231.007812 172.847656 C 140.242188 197.835938 105.515625 269.503906 95.246094 310.441406 C 84.976562 351.375 49.171875 367.058594 22.648438 348.023438 C -54.226562 292.785156 112.101562 115.273438 254.238281 123.980469 C 342.105469 129.367188 383.835938 217.074219 371.859375 283.027344 Z M 371.859375 283.027344 " fill-opacity="1" fill-rule="evenodd"/></g><path fill="#002fa3" d="M 211.101562 126.554688 C 211.101562 126.554688 272.652344 115.09375 312.316406 142.714844 C 312.316406 142.714844 323.152344 165.546875 325.398438 191.878906 C 325.398438 191.878906 286.601562 155.582031 220.710938 176.050781 C 220.710938 176.050781 217.957031 141.964844 211.101562 126.554688 " fill-opacity="1" fill-rule="evenodd"/><path fill="#0066ff" d="M 218.015625 124.308594 C 218.015625 124.308594 227.117188 152.589844 227.507812 176.378906 C 227.507812 176.378906 280.761719 159.890625 318.484375 191.191406 C 318.484375 191.191406 311.539062 153.308594 301.03125 132.628906 C 301.058594 132.628906 260.796875 113.238281 218.015625 124.308594 " fill-opacity="1" fill-rule="evenodd"/><path fill="#c5ddff" d="M 305.609375 180.058594 C 305.609375 180.058594 303.929688 161.148438 291.269531 128.679688 C 287.195312 118.207031 281.957031 106.296875 275.28125 93.160156 C 260.015625 63.144531 217.027344 3.746094 179.996094 3.746094 C 176.554688 3.746094 173.140625 4.253906 169.816406 5.359375 C 81.863281 34.597656 31.601562 179.28125 31.601562 179.28125 C 29.027344 189.425781 33.457031 196.070312 41.269531 196.070312 C 50.96875 196.070312 65.90625 185.835938 79.230469 159.230469 C 101.621094 114.433594 139.460938 28.941406 179.160156 28.941406 C 180.324219 28.941406 181.492188 29 182.660156 29.152344 C 206.519531 32.203125 234.660156 59.105469 252.472656 80.828125 C 260.570312 90.71875 270.367188 107.816406 279.335938 125.050781 C 279.3125 125.046875 305.609375 180.058594 305.609375 180.058594 Z M 238.789062 48.453125 C 238.550781 48.871094 238.160156 49.082031 237.652344 49.082031 C 231.394531 49.082031 206.398438 19.394531 182.925781 18.917969 L 181.878906 18.917969 C 157.511719 18.917969 140.566406 36.003906 122.875 60.511719 C 104.941406 85.378906 72.25 165.15625 59.46875 167.640625 C 57.941406 167.941406 56.535156 168.089844 55.308594 168.089844 C 46.355469 168.089844 45.726562 160.070312 53.480469 144.238281 C 53.480469 144.238281 85.035156 86.785156 111.167969 54.855469 C 132.066406 29.332031 154.25 9.96875 180.5625 9.96875 C 182.507812 9.96875 184.484375 10.089844 186.488281 10.296875 C 207.027344 12.542969 242.113281 42.824219 238.789062 48.453125 Z M 238.789062 48.453125 " fill-opacity="0.3" fill-rule="nonzero"/><path fill="#c5ddff" d="M 180.535156 10 C 154.25 10 132.039062 29.359375 111.140625 54.886719 C 85.007812 86.816406 53.453125 144.269531 53.453125 144.269531 C 45.699219 160.101562 46.328125 168.121094 55.28125 168.121094 C 56.507812 168.121094 57.886719 167.96875 59.441406 167.671875 C 72.226562 165.15625 104.914062 85.410156 122.847656 60.542969 C 140.511719 36.003906 157.484375 18.945312 181.851562 18.945312 L 182.902344 18.945312 C 206.402344 19.425781 231.398438 49.109375 237.625 49.109375 C 238.132812 49.109375 238.523438 48.902344 238.761719 48.480469 C 242.085938 42.855469 207 12.574219 186.464844 10.328125 C 184.488281 10.089844 182.511719 10 180.535156 10 " fill-opacity="1" fill-rule="nonzero"/><path fill="#002fa3" d="M 225.320312 239.25 C 225.5 236.257812 225.710938 233.175781 225.949219 230.03125 C 225.621094 232.847656 225.378906 235.957031 225.320312 239.25 Z M 227.445312 173.984375 C 227.425781 173.984375 227.40625 173.996094 227.386719 174.015625 C 227.417969 174.734375 227.445312 175.449219 227.507812 176.167969 C 227.507812 175.449219 227.476562 174.734375 227.445312 173.984375 Z M 227.445312 173.984375 " fill-opacity="0.8" fill-rule="nonzero"/><path fill="#002fa3" d="M 226.519531 162.824219 C 226.90625 166.445312 227.207031 170.183594 227.417969 174.015625 L 227.476562 174.015625 C 227.328125 170.304688 226.96875 166.5625 226.519531 162.824219 M 218.40625 125.507812 L 218.316406 125.507812 C 218.226562 125.507812 218.136719 125.535156 218.046875 125.535156 C 219.421875 130.234375 220.890625 135.410156 222.566406 141.097656 C 222.597656 141.1875 222.625 141.246094 222.625 141.335938 C 220.859375 133.796875 219.125 127.929688 218.40625 125.507812 " fill-opacity="0.8" fill-rule="nonzero"/><path fill="#002fa3" d="M 316.65625 258.28125 C 313.664062 267.917969 309.234375 275.996094 303.335938 281.953125 C 301.597656 283.6875 299.742188 285.242188 297.796875 286.621094 C 293.097656 289.910156 287.648438 292.066406 281.511719 292.902344 C 278.128906 293.382812 274.867188 293.59375 271.691406 293.59375 C 267.023438 293.59375 262.59375 293.082031 258.460938 292.066406 C 255.796875 291.289062 253.058594 290.511719 250.363281 289.285156 C 247.277344 287.90625 244.601562 285.992188 242.175781 284.136719 C 233.914062 277.433594 228.222656 267.140625 226.039062 253.105469 C 225.378906 248.375 225.199219 243.648438 225.289062 239.25 C 225.46875 236.257812 225.679688 233.175781 225.917969 230.03125 C 227.238281 212.46875 229.0625 192.988281 227.507812 176.378906 L 227.507812 176.167969 C 227.507812 175.449219 227.476562 174.734375 227.445312 173.984375 C 227.296875 170.304688 227.027344 166.535156 226.519531 162.824219 C 225.410156 154.683594 224.242188 147.742188 222.625 141.335938 C 221.757812 137.566406 220.890625 134.183594 220.140625 131.492188 C 219.394531 128.769531 218.792969 126.703125 218.40625 125.507812 C 218.164062 124.730469 217.328125 122.15625 217.359375 122.15625 C 189.367188 32.261719 153.441406 80.140625 130.929688 135.5 C 130.183594 136.011719 105.933594 153.097656 85.816406 171.171875 C 85.816406 171.171875 126.320312 90.195312 140.839844 68.949219 C 155.539062 46.894531 174.160156 33.820312 196.582031 48.902344 C 214.421875 60.542969 228.824219 89.65625 235.886719 121.289062 C 238.222656 131.703125 239.75 142.414062 240.347656 152.828125 C 240.738281 159.652344 240.707031 166.652344 240.410156 173.59375 C 239.71875 188.707031 237.59375 203.519531 235.167969 215.519531 C 232.296875 229.734375 236.277344 244.605469 246.277344 255.109375 C 250.226562 259.269531 254.988281 262.621094 260.707031 264.417969 C 263.847656 265.402344 267.050781 265.882812 270.195312 265.882812 C 289.027344 265.882812 306.570312 249.335938 308.933594 230.570312 C 311.027344 213.875 311.148438 198.492188 310.3125 185.175781 C 308.425781 154.984375 302.167969 135.144531 302.289062 135.144531 L 303.246094 137.207031 C 306.269531 143.402344 308.335938 150.226562 310.671875 157.167969 C 313.003906 164.078125 317.886719 187.421875 318.511719 190.980469 C 322.585938 214.292969 322.585938 237.785156 316.65625 258.28125 Z M 316.65625 258.28125 " fill-opacity="0.8" fill-rule="nonzero"/><path fill="#002fa3" d="M 219.003906 162.941406 C 117.011719 187.511719 80.066406 270.761719 66.535156 292.546875 C 60.191406 302.75 51.898438 308.34375 44.445312 308.34375 C 36 308.34375 28.636719 301.132812 26.421875 285.214844 C 22.261719 255.289062 50.582031 218.003906 50.582031 218.003906 C 50.582031 218.003906 23.578125 247.121094 19.957031 258.160156 C 16.363281 269.203125 12.710938 281.59375 14.714844 295.746094 C 16.84375 310.859375 27.082031 326.957031 44.445312 327.496094 C 44.921875 327.496094 45.371094 327.527344 45.820312 327.527344 C 80.308594 327.527344 82.015625 289.285156 109.285156 254.210938 C 129.792969 227.878906 160.148438 208.308594 160.148438 208.308594 C 160.148438 208.308594 153.953125 213.097656 146.136719 220.816406 C 147.367188 219.710938 148.652344 218.570312 149.96875 217.433594 C 167.992188 200.558594 191.164062 185.683594 220.742188 175.960938 C 220.742188 175.839844 220.710938 175.570312 220.679688 175.179688 L 219.003906 162.941406 " fill-opacity="0.4" fill-rule="nonzero"/><path fill="#002fa3" d="M 220.652344 175.179688 C 220.679688 175.601562 220.710938 175.871094 220.710938 175.960938 L 220.710938 176.019531 L 220.742188 176.019531 L 220.652344 175.179688 " fill-opacity="0.8" fill-rule="nonzero"/><path fill="#4c6dbe" d="M 77.882812 342.519531 C 72.851562 347.484375 67.195312 351.136719 61.207031 353.410156 C 67.855469 351.136719 73.332031 347.21875 77.882812 342.519531 M 13.910156 340.066406 C 16.84375 343.65625 20.34375 346.738281 24.355469 349.191406 C 23.816406 348.832031 18.398438 345.273438 13.910156 340.066406 M 97.371094 302.839844 C 96.59375 305.472656 95.875 308.015625 95.277344 310.46875 C 95.066406 311.277344 94.855469 312.085938 94.617188 312.894531 C 96.023438 308.554688 96.890625 304.964844 97.371094 302.839844 M 124.792969 246.492188 C 117.636719 256.664062 111.921875 266.898438 107.339844 276.714844 C 111.472656 268.097656 117.160156 257.683594 124.792969 246.492188 " fill-opacity="1" fill-rule="nonzero"/><path fill="#002fa3" d="M 4.6875 295.628906 C 4.328125 297.332031 4.058594 299.007812 3.820312 300.683594 C 4.058594 299.007812 4.359375 297.332031 4.6875 295.628906 M 18.996094 259.835938 C 16.78125 263.1875 11.78125 271.65625 7.652344 284.675781 C 10.285156 276.625 14.148438 268.277344 18.996094 259.835938 " fill-opacity="0.8" fill-rule="nonzero"/><g clip-path="url(#e5ddb24722)"><path fill="#002fa3" d="M 160.148438 208.367188 C 159.96875 208.515625 153.832031 213.273438 146.136719 220.875 C 140.601562 226.324219 134.253906 233.265625 128.65625 240.984375 C 127.308594 242.839844 126.019531 244.695312 124.792969 246.492188 C 117.636719 256.636719 111.921875 266.898438 107.339844 276.714844 C 100.394531 291.226562 97.789062 300.746094 97.789062 300.746094 C 97.789062 300.746094 97.671875 301.492188 97.371094 302.839844 C 96.5625 305.472656 95.875 308.015625 95.277344 310.46875 C 95.066406 311.277344 94.855469 312.085938 94.617188 312.894531 C 91.742188 321.691406 88.191406 332.390625 77.882812 342.519531 C 72.851562 347.484375 67.195312 351.167969 61.207031 353.410156 C 57.226562 354.789062 52.683594 356.117188 47.832031 356.117188 C 47.324219 356.117188 46.816406 356.117188 46.277344 356.085938 C 37.832031 355.789062 30.863281 353.558594 24.386719 349.191406 C 23.816406 348.832031 23.25 348.445312 22.679688 348.023438 C 19.296875 345.601562 16.574219 343.417969 13.9375 340.066406 C 11.691406 337.222656 8.820312 333.75 7.054688 329.320312 C 2.144531 317.023438 0.226562 299.996094 1.664062 288.863281 C 1.875 287.1875 4.386719 297.332031 4.71875 295.628906 C 4.835938 295.027344 4.71875 294.160156 4.867188 293.5625 C 5.644531 290.300781 6.453125 287.429688 7.351562 284.585938 C 10.015625 276.535156 14.148438 268.277344 18.996094 259.835938 C 19.597656 258.820312 19.894531 258.25 19.957031 258.191406 C 19.894531 258.339844 19.566406 259.507812 18.90625 261.421875 C 16.753906 267.558594 12.742188 281.59375 14.714844 295.777344 C 16.84375 310.890625 27.082031 326.988281 44.445312 327.527344 C 44.894531 327.527344 45.371094 327.554688 45.820312 327.554688 C 80.277344 327.554688 82.015625 289.3125 109.285156 254.242188 C 129.613281 228.117188 159.640625 208.605469 160.148438 208.367188 Z M 160.148438 208.367188 " fill-opacity="0.8" fill-rule="nonzero"/></g><path fill="#c5ddff" d="M 185.265625 162.3125 C 165.539062 167.730469 137.21875 184.667969 113.117188 205.464844 C 93.121094 222.730469 83.75 242.273438 76.234375 258.011719 C 72.554688 265.734375 69.351562 272.40625 65.519531 277.433594 C 60.609375 283.835938 54.921875 286.949219 48.1875 286.949219 C 47.167969 286.949219 46.121094 286.890625 45.070312 286.738281 C 40.371094 286.113281 36.75 283.628906 34.863281 279.828125 C 29.804688 269.5625 38.605469 252.597656 48.035156 236.109375 L 48.664062 235 C 54.773438 224.289062 67.285156 209.863281 82.132812 196.339844 C 95.1875 184.457031 116.230469 167.699219 142.425781 155.339844 C 144.613281 154.324219 146.796875 153.246094 148.921875 152.230469 C 164.28125 144.808594 180.144531 137.148438 198.585938 137.027344 L 198.796875 137.027344 C 208.40625 137.027344 210.144531 142.175781 210.441406 144.390625 C 211.371094 151.421875 202.898438 157.464844 185.265625 162.3125 Z M 185.265625 162.3125 " fill-opacity="0.3" fill-rule="nonzero"/><path fill="#c5ddff" d="M 198.945312 140.320312 L 198.765625 140.320312 C 179.277344 140.46875 162.753906 149.746094 145.179688 158.066406 C 99.707031 179.519531 64.203125 217.523438 54.113281 235.238281 C 47.496094 246.851562 30.375 275.847656 46.089844 278 C 46.898438 278.121094 47.648438 278.152344 48.394531 278.152344 C 69.800781 278.152344 68.574219 233.324219 109.375 198.132812 C 132.335938 178.324219 161.675781 159.832031 183.886719 153.726562 C 205.414062 147.800781 209.695312 140.320312 198.945312 140.320312 " fill-opacity="0.4" fill-rule="nonzero"/><path fill="#c5ddff" d="M 302.226562 224.078125 C 299.863281 248.105469 285.792969 259.03125 271.601562 259.03125 C 257.414062 259.03125 244.449219 249.125 240.648438 231.140625 C 238.972656 223.238281 242.265625 201.664062 244.691406 172.996094 C 245.976562 157.796875 246.996094 140.558594 246.933594 122.335938 C 246.933594 121.828125 246.933594 121.347656 246.964844 120.898438 C 247.203125 117.578125 248.34375 116.082031 250.167969 116.082031 C 252.265625 116.082031 255.257812 118.085938 258.730469 121.558594 C 268.667969 131.523438 282.769531 153.726562 292.257812 176.796875 C 299.113281 193.523438 303.546875 210.730469 302.226562 224.078125 Z M 302.226562 224.078125 " fill-opacity="0.3" fill-rule="nonzero"/><path fill="#c5ddff" d="M 272.472656 177.785156 C 272.472656 177.785156 276.273438 191.429688 271.84375 214.863281 C 270.074219 224.167969 259.746094 230.570312 258.101562 238.679688 C 256.363281 247.121094 262.234375 251.699219 269.867188 251.699219 C 279.867188 251.699219 292.886719 243.769531 295.550781 226.171875 C 299.085938 202.980469 290.433594 183.917969 282.738281 174.433594 C 281.542969 172.96875 279.835938 171.980469 277.949219 171.742188 C 277.890625 171.742188 277.828125 171.710938 277.769531 171.710938 C 274.957031 171.320312 272.441406 173.503906 272.441406 176.347656 Z M 272.472656 177.785156 " fill-opacity="0.5" fill-rule="nonzero"/><path fill="#0066ff" d="M 246.183594 349.371094 C 248.816406 359.695312 259.355469 369.71875 274.265625 373.582031 C 277.496094 374.328125 280.371094 374.65625 282.464844 374.777344 C 284.234375 374.867188 285.847656 374.925781 287.375 374.925781 C 291.746094 374.925781 295.101562 374.539062 298.125 373.910156 C 294.5625 374.507812 291.089844 374.808594 287.796875 374.808594 C 266 374.808594 249.957031 362.507812 246.183594 349.371094 " fill-opacity="1" fill-rule="nonzero"/><g clip-path="url(#0ebaf7f63d)"><path fill="#002fa3" d="M 244.808594 330.070312 C 244.601562 331.625 244.480469 333.242188 244.390625 334.949219 C 244.269531 337.820312 244.390625 340.484375 244.71875 342.96875 C 245.078125 345.003906 245.558594 347.128906 246.214844 349.371094 C 244.242188 341.679688 244.152344 335.15625 244.808594 330.070312 M 373.867188 258.011719 C 371.832031 284.316406 357.222656 322.289062 327.074219 343.265625 C 316.957031 348.625 305.761719 351.195312 295.28125 351.195312 C 274.085938 351.195312 255.675781 340.632812 254.390625 321.03125 C 253.519531 307.6875 264.269531 303.019531 264.269531 303.019531 C 264.269531 303.019531 260.707031 304.335938 256.542969 307.65625 C 253.042969 310.5 249.988281 314.242188 247.804688 319.058594 C 248.3125 317.949219 248.703125 317.382812 248.703125 317.382812 C 248.703125 317.382812 242.863281 354.308594 288.875 359.726562 C 289.65625 359.816406 290.492188 359.84375 291.390625 359.84375 C 301.121094 359.84375 317.765625 354.878906 325.070312 351.046875 C 350.964844 337.460938 364.40625 310.917969 368.269531 297.960938 L 371.859375 283.058594 C 372.191406 283.015625 374.402344 266.484375 373.867188 258.011719 " fill-opacity="0.4" fill-rule="nonzero"/></g><path fill="#6884c9" d="M 247.828125 319.058594 C 246.902344 321.0625 245.464844 324.804688 244.804688 330.070312 C 245.34375 325.882812 246.394531 322.230469 247.828125 319.058594 " fill-opacity="1" fill-rule="nonzero"/><path fill="#002fa3" d="M 368.296875 297.929688 C 364.4375 310.917969 350.996094 337.460938 325.097656 351.015625 C 317.765625 354.847656 301.148438 359.816406 291.421875 359.816406 C 290.523438 359.816406 289.683594 359.785156 288.90625 359.695312 C 242.894531 354.308594 248.730469 317.351562 248.730469 317.351562 C 248.730469 317.351562 248.371094 317.921875 247.832031 319.027344 C 246.394531 322.199219 245.347656 325.851562 244.808594 330.039062 C 244.179688 335.128906 244.242188 341.652344 246.214844 349.371094 C 249.988281 362.507812 264.714844 375.292969 287.738281 374.976562 C 291.0625 374.933594 294.5625 374.507812 298.125 373.910156 C 300.96875 373.3125 303.515625 372.53125 306.300781 371.664062 C 313.605469 369.421875 320.25 366.367188 326.238281 362.566406 C 360.394531 339.675781 368.296875 297.929688 368.296875 297.929688 Z M 368.296875 297.929688 " fill-opacity="0.8" fill-rule="nonzero"/><path fill="#c5ddff" d="M 354.554688 305.054688 C 354.554688 305.054688 340.484375 316.8125 323.242188 316.8125 L 323.210938 316.8125 C 310.007812 316.8125 304.171875 311.546875 296.355469 308.734375 C 291.359375 306.9375 285.699219 305.441406 280.492188 305.441406 C 274.59375 305.441406 269.265625 307.359375 266.03125 312.894531 C 261.691406 320.40625 273.125 335.636719 298.871094 335.636719 C 300.277344 335.636719 301.746094 335.578125 303.273438 335.488281 C 323.570312 334.199219 342.789062 322.859375 354.554688 305.054688 " fill-opacity="0.3" fill-rule="nonzero"/><path fill="#c5ddff" d="M 308.664062 321.511719 C 308.664062 321.511719 302.226562 322.289062 291.601562 319.535156 C 287.378906 318.429688 284.804688 314.269531 281.152344 313.253906 C 277.320312 312.207031 274.984375 314.210938 274.6875 317.054688 C 274.296875 320.824219 277.46875 326.058594 285.492188 327.914062 C 296.0625 330.339844 305.160156 327.976562 309.832031 325.523438 C 310.550781 325.132812 311.058594 324.535156 311.269531 323.847656 C 311.269531 323.816406 311.269531 323.785156 311.296875 323.785156 C 311.597656 322.738281 310.671875 321.691406 309.351562 321.570312 Z M 308.664062 321.511719 " fill-opacity="0.5" fill-rule="nonzero"/><path fill="#002fa3" d="M 367.128906 263.25 C 364.554688 238.054688 347.398438 206.960938 319.589844 187.449219 L 316.296875 170.242188 C 343.925781 191.910156 369.042969 222.164062 367.128906 263.25 Z M 367.128906 263.25 " fill-opacity="0.8" fill-rule="nonzero"/><path fill="#c5ddff" d="M 314.503906 147.769531 C 314.589844 146.753906 364.40625 182.09375 370.902344 242.570312 C 357.3125 185.625 327.792969 165.84375 319.53125 162.042969 C 318.09375 156.925781 316.328125 152.078125 314.503906 147.769531 Z M 314.503906 147.769531 " fill-opacity="1" fill-rule="evenodd"/></svg>